<?xml version="1.0" encoding="UTF-8" standalone="no"?>
<!DOCTYPE svg PUBLIC "-//W3C//DTD SVG 1.1//EN"
 "http://www.w3.org/Graphics/SVG/1.1/DTD/svg11.dtd">
<!-- Generated by graphviz version 2.26.3 (20100126.1600)
 -->
<!-- Title: g Pages: 1 -->
<svg width="427pt" height="482pt"
 viewBox="0.00 0.00 427.00 482.00" xmlns="http://www.w3.org/2000/svg" xmlns:xlink="http://www.w3.org/1999/xlink">
<g id="graph1" class="graph" transform="scale(1 1) rotate(0) translate(4 478)">
<title>g</title>
<polygon fill="white" stroke="white" points="-4,5 -4,-478 424,-478 424,5 -4,5"/>
<!-- N1 -->
<g id="node1" class="node"><title>N1</title>
<polygon fill="#ffffff" stroke="#ffffff" stroke-width="1.5" points="12,-209 86,-209 98,-221 98,-253 86,-265 12,-265 0,-253 0,-221 12,-209"/>
<path fill="#ffffff" stroke="#ffffff" stroke-width="1.5" d="M86,-209C92,-209 98,-215 98,-221"/>
<path fill="#ffffff" stroke="#ffffff" stroke-width="1.5" d="M98,-253C98,-259 92,-265 86,-265"/>
<path fill="#ffffff" stroke="#ffffff" stroke-width="1.5" d="M12,-265C6,-265 0,-259 0,-253"/>
<path fill="#ffffff" stroke="#ffffff" stroke-width="1.5" d="M0,-221C0,-215 6,-209 12,-209"/>
<polyline fill="none" stroke="#2e3436" stroke-width="1.5" points="12,-209 86,-209 "/>
<path fill="none" stroke="#2e3436" stroke-width="1.5" d="M86,-209C92,-209 98,-215 98,-221"/>
<polyline fill="none" stroke="#2e3436" stroke-width="1.5" points="98,-221 98,-253 "/>
<path fill="none" stroke="#2e3436" stroke-width="1.5" d="M98,-253C98,-259 92,-265 86,-265"/>
<polyline fill="none" stroke="#2e3436" stroke-width="1.5" points="86,-265 12,-265 "/>
<path fill="none" stroke="#2e3436" stroke-width="1.5" d="M12,-265C6,-265 0,-259 0,-253"/>
<polyline fill="none" stroke="#2e3436" stroke-width="1.5" points="0,-253 0,-221 "/>
<path fill="none" stroke="#2e3436" stroke-width="1.5" d="M0,-221C0,-215 6,-209 12,-209"/>
<text text-anchor="middle" x="49" y="-253.8" font-family="FreeSans" font-size="8.00" fill="#1c2021">Node[1]</text>
<polyline fill="none" stroke="#2e3436" stroke-width="1.5" points="0,-247 98,-247 "/>
<text text-anchor="start" x="8" y="-235.8" font-family="FreeSans" font-size="8.00" fill="#1c2021">text = &#39;Joe status2&#39;</text>
<text text-anchor="start" x="8" y="-225.8" font-family="FreeSans" font-size="8.00" fill="#1c2021">name = &#39;joe_s2&#39;</text>
<text text-anchor="start" x="8" y="-215.8" font-family="FreeSans" font-size="8.00" fill="#1c2021">date = 6</text>
</g>
<!-- N2 -->
<g id="node2" class="node"><title>N2</title>
<polygon fill="#ffffff" stroke="#ffffff" stroke-width="1.5" points="39,-323 113,-323 125,-335 125,-367 113,-379 39,-379 27,-367 27,-335 39,-323"/>
<path fill="#ffffff" stroke="#ffffff" stroke-width="1.5" d="M113,-323C119,-323 125,-329 125,-335"/>
<path fill="#ffffff" stroke="#ffffff" stroke-width="1.5" d="M125,-367C125,-373 119,-379 113,-379"/>
<path fill="#ffffff" stroke="#ffffff" stroke-width="1.5" d="M39,-379C33,-379 27,-373 27,-367"/>
<path fill="#ffffff" stroke="#ffffff" stroke-width="1.5" d="M27,-335C27,-329 33,-323 39,-323"/>
<polyline fill="none" stroke="#2e3436" stroke-width="1.5" points="39,-323 113,-323 "/>
<path fill="none" stroke="#2e3436" stroke-width="1.5" d="M113,-323C119,-323 125,-329 125,-335"/>
<polyline fill="none" stroke="#2e3436" stroke-width="1.5" points="125,-335 125,-367 "/>
<path fill="none" stroke="#2e3436" stroke-width="1.5" d="M125,-367C125,-373 119,-379 113,-379"/>
<polyline fill="none" stroke="#2e3436" stroke-width="1.5" points="113,-379 39,-379 "/>
<path fill="none" stroke="#2e3436" stroke-width="1.5" d="M39,-379C33,-379 27,-373 27,-367"/>
<polyline fill="none" stroke="#2e3436" stroke-width="1.5" points="27,-367 27,-335 "/>
<path fill="none" stroke="#2e3436" stroke-width="1.5" d="M27,-335C27,-329 33,-323 39,-323"/>
<text text-anchor="middle" x="76" y="-367.8" font-family="FreeSans" font-size="8.00" fill="#1c2021">Node[2]</text>
<polyline fill="none" stroke="#2e3436" stroke-width="1.5" points="27,-361 125,-361 "/>
<text text-anchor="start" x="35" y="-349.8" font-family="FreeSans" font-size="8.00" fill="#1c2021">text = &#39;Joe status1&#39;</text>
<text text-anchor="start" x="35" y="-339.8" font-family="FreeSans" font-size="8.00" fill="#1c2021">name = &#39;joe_s1&#39;</text>
<text text-anchor="start" x="35" y="-329.8" font-family="FreeSans" font-size="8.00" fill="#1c2021">date = 3</text>
</g>
<!-- N2&#45;&gt;N1 -->
<g id="edge2" class="edge"><title>N2&#45;&gt;N1</title>
<path fill="none" stroke="#2e3436" stroke-width="2" d="M69.3258,-322.82C65.7561,-307.748 61.3222,-289.027 57.5074,-272.92"/>
<polygon fill="#2e3436" stroke="#2e3436" points="55.691,-265.251 60.7037,-271.771 57.0418,-268.785 57.9061,-272.434 57.4195,-272.549 56.933,-272.664 56.0687,-269.015 54.1354,-273.327 55.691,-265.251 55.691,-265.251"/>
<text text-anchor="middle" x="76" y="-291.8" font-family="FreeSans" font-size="8.00" fill="#2e3436">NEXT</text>
</g>
<!-- N3 -->
<g id="node4" class="node"><title>N3</title>
<polygon fill="#ffffff" stroke="#ffffff" stroke-width="1.5" points="182.5,-437 229.5,-437 241.5,-449 241.5,-461 229.5,-473 182.5,-473 170.5,-461 170.5,-449 182.5,-437"/>
<path fill="#ffffff" stroke="#ffffff" stroke-width="1.5" d="M229.5,-437C235.5,-437 241.5,-443 241.5,-449"/>
<path fill="#ffffff" stroke="#ffffff" stroke-width="1.5" d="M241.5,-461C241.5,-467 235.5,-473 229.5,-473"/>
<path fill="#ffffff" stroke="#ffffff" stroke-width="1.5" d="M182.5,-473C176.5,-473 170.5,-467 170.5,-461"/>
<path fill="#ffffff" stroke="#ffffff" stroke-width="1.5" d="M170.5,-449C170.5,-443 176.5,-437 182.5,-437"/>
<polyline fill="none" stroke="#2e3436" stroke-width="1.5" points="182.5,-437 229.5,-437 "/>
<path fill="none" stroke="#2e3436" stroke-width="1.5" d="M229.5,-437C235.5,-437 241.5,-443 241.5,-449"/>
<polyline fill="none" stroke="#2e3436" stroke-width="1.5" points="241.5,-449 241.5,-461 "/>
<path fill="none" stroke="#2e3436" stroke-width="1.5" d="M241.5,-461C241.5,-467 235.5,-473 229.5,-473"/>
<polyline fill="none" stroke="#2e3436" stroke-width="1.5" points="229.5,-473 182.5,-473 "/>
<path fill="none" stroke="#2e3436" stroke-width="1.5" d="M182.5,-473C176.5,-473 170.5,-467 170.5,-461"/>
<polyline fill="none" stroke="#2e3436" stroke-width="1.5" points="170.5,-461 170.5,-449 "/>
<path fill="none" stroke="#2e3436" stroke-width="1.5" d="M170.5,-449C170.5,-443 176.5,-437 182.5,-437"/>
<text text-anchor="middle" x="206" y="-461.8" font-family="FreeSans" font-size="8.00" fill="#1c2021">Node[3]</text>
<polyline fill="none" stroke="#2e3436" stroke-width="1.5" points="170.5,-455 241.5,-455 "/>
<text text-anchor="start" x="178.5" y="-443.8" font-family="FreeSans" font-size="8.00" fill="#1c2021">name = &#39;Joe&#39;</text>
</g>
<!-- N3&#45;&gt;N2 -->
<g id="edge4" class="edge"><title>N3&#45;&gt;N2</title>
<path fill="none" stroke="#4e9a06" stroke-width="2" d="M183.356,-436.885C165.136,-422.309 139.053,-401.442 117.159,-383.927"/>
<polygon fill="#4e9a06" stroke="#4e9a06" points="111.105,-379.084 119.07,-381.134 114.346,-381.036 117.274,-383.379 116.961,-383.769 116.649,-384.16 113.721,-381.817 114.853,-386.405 111.105,-379.084 111.105,-379.084"/>
<text text-anchor="middle" x="173.5" y="-405.8" font-family="FreeSans" font-size="8.00" fill="#4e9a06">STATUS</text>
</g>
<!-- N9 -->
<g id="node7" class="node"><title>N9</title>
<polygon fill="#ffffff" stroke="#ffffff" stroke-width="1.5" points="181,-333 231,-333 243,-345 243,-357 231,-369 181,-369 169,-357 169,-345 181,-333"/>
<path fill="#ffffff" stroke="#ffffff" stroke-width="1.5" d="M231,-333C237,-333 243,-339 243,-345"/>
<path fill="#ffffff" stroke="#ffffff" stroke-width="1.5" d="M243,-357C243,-363 237,-369 231,-369"/>
<path fill="#ffffff" stroke="#ffffff" stroke-width="1.5" d="M181,-369C175,-369 169,-363 169,-357"/>
<path fill="#ffffff" stroke="#ffffff" stroke-width="1.5" d="M169,-345C169,-339 175,-333 181,-333"/>
<polyline fill="none" stroke="#2e3436" stroke-width="1.5" points="181,-333 231,-333 "/>
<path fill="none" stroke="#2e3436" stroke-width="1.5" d="M231,-333C237,-333 243,-339 243,-345"/>
<polyline fill="none" stroke="#2e3436" stroke-width="1.5" points="243,-345 243,-357 "/>
<path fill="none" stroke="#2e3436" stroke-width="1.5" d="M243,-357C243,-363 237,-369 231,-369"/>
<polyline fill="none" stroke="#2e3436" stroke-width="1.5" points="231,-369 181,-369 "/>
<path fill="none" stroke="#2e3436" stroke-width="1.5" d="M181,-369C175,-369 169,-363 169,-357"/>
<polyline fill="none" stroke="#2e3436" stroke-width="1.5" points="169,-357 169,-345 "/>
<path fill="none" stroke="#2e3436" stroke-width="1.5" d="M169,-345C169,-339 175,-333 181,-333"/>
<text text-anchor="middle" x="206" y="-357.8" font-family="FreeSans" font-size="8.00" fill="#1c2021">Node[9]</text>
<polyline fill="none" stroke="#2e3436" stroke-width="1.5" points="169,-351 243,-351 "/>
<text text-anchor="start" x="177" y="-339.8" font-family="FreeSans" font-size="8.00" fill="#1c2021">name = &#39;Bob&#39;</text>
</g>
<!-- N3&#45;&gt;N9 -->
<g id="edge6" class="edge"><title>N3&#45;&gt;N9</title>
<path fill="none" stroke="#a40000" stroke-width="2" d="M206,-436.885C206,-420.284 206,-395.523 206,-376.847"/>
<polygon fill="#a40000" stroke="#a40000" points="206,-369.257 209.375,-376.757 206.5,-373.007 206.5,-376.757 206,-376.757 205.5,-376.757 205.5,-373.007 202.625,-376.757 206,-369.257 206,-369.257"/>
<text text-anchor="middle" x="253" y="-410.8" font-family="FreeSans" font-size="8.00" fill="#a40000">FRIEND</text>
<text text-anchor="start" x="206" y="-400.8" font-family="FreeSans" font-size="8.00" fill="#a40000">status = &#39;CONFIRMED&#39;</text>
</g>
<!-- N6 -->
<g id="node11" class="node"><title>N6</title>
<polygon fill="#ffffff" stroke="#ffffff" stroke-width="1.5" points="301.5,-219 354.5,-219 366.5,-231 366.5,-243 354.5,-255 301.5,-255 289.5,-243 289.5,-231 301.5,-219"/>
<path fill="#ffffff" stroke="#ffffff" stroke-width="1.5" d="M354.5,-219C360.5,-219 366.5,-225 366.5,-231"/>
<path fill="#ffffff" stroke="#ffffff" stroke-width="1.5" d="M366.5,-243C366.5,-249 360.5,-255 354.5,-255"/>
<path fill="#ffffff" stroke="#ffffff" stroke-width="1.5" d="M301.5,-255C295.5,-255 289.5,-249 289.5,-243"/>
<path fill="#ffffff" stroke="#ffffff" stroke-width="1.5" d="M289.5,-231C289.5,-225 295.5,-219 301.5,-219"/>
<polyline fill="none" stroke="#2e3436" stroke-width="1.5" points="301.5,-219 354.5,-219 "/>
<path fill="none" stroke="#2e3436" stroke-width="1.5" d="M354.5,-219C360.5,-219 366.5,-225 366.5,-231"/>
<polyline fill="none" stroke="#2e3436" stroke-width="1.5" points="366.5,-231 366.5,-243 "/>
<path fill="none" stroke="#2e3436" stroke-width="1.5" d="M366.5,-243C366.5,-249 360.5,-255 354.5,-255"/>
<polyline fill="none" stroke="#2e3436" stroke-width="1.5" points="354.5,-255 301.5,-255 "/>
<path fill="none" stroke="#2e3436" stroke-width="1.5" d="M301.5,-255C295.5,-255 289.5,-249 289.5,-243"/>
<polyline fill="none" stroke="#2e3436" stroke-width="1.5" points="289.5,-243 289.5,-231 "/>
<path fill="none" stroke="#2e3436" stroke-width="1.5" d="M289.5,-231C289.5,-225 295.5,-219 301.5,-219"/>
<text text-anchor="middle" x="328" y="-243.8" font-family="FreeSans" font-size="8.00" fill="#1c2021">Node[6]</text>
<polyline fill="none" stroke="#2e3436" stroke-width="1.5" points="289.5,-237 366.5,-237 "/>
<text text-anchor="start" x="297.5" y="-225.8" font-family="FreeSans" font-size="8.00" fill="#1c2021">name = &#39;Alice&#39;</text>
</g>
<!-- N9&#45;&gt;N6 -->
<g id="edge18" class="edge"><title>N9&#45;&gt;N6</title>
<path fill="none" stroke="#a40000" stroke-width="2" d="M209.864,-332.863C213.794,-318.17 221.175,-297.725 234,-284 247.08,-270.002 265.244,-259.58 282.12,-252.155"/>
<polygon fill="#a40000" stroke="#a40000" points="289.256,-249.155 283.65,-255.173 285.993,-251.07 282.536,-252.523 282.342,-252.062 282.148,-251.601 285.605,-250.148 281.034,-248.951 289.256,-249.155 289.256,-249.155"/>
<text text-anchor="middle" x="281" y="-296.8" font-family="FreeSans" font-size="8.00" fill="#a40000">FRIEND</text>
<text text-anchor="start" x="234" y="-286.8" font-family="FreeSans" font-size="8.00" fill="#a40000">status = &#39;CONFIRMED&#39;</text>
</g>
<!-- N8 -->
<g id="node15" class="node"><title>N8</title>
<polygon fill="#ffffff" stroke="#ffffff" stroke-width="1.5" points="139,-209 221,-209 233,-221 233,-253 221,-265 139,-265 127,-253 127,-221 139,-209"/>
<path fill="#ffffff" stroke="#ffffff" stroke-width="1.5" d="M221,-209C227,-209 233,-215 233,-221"/>
<path fill="#ffffff" stroke="#ffffff" stroke-width="1.5" d="M233,-253C233,-259 227,-265 221,-265"/>
<path fill="#ffffff" stroke="#ffffff" stroke-width="1.5" d="M139,-265C133,-265 127,-259 127,-253"/>
<path fill="#ffffff" stroke="#ffffff" stroke-width="1.5" d="M127,-221C127,-215 133,-209 139,-209"/>
<polyline fill="none" stroke="#2e3436" stroke-width="1.5" points="139,-209 221,-209 "/>
<path fill="none" stroke="#2e3436" stroke-width="1.5" d="M221,-209C227,-209 233,-215 233,-221"/>
<polyline fill="none" stroke="#2e3436" stroke-width="1.5" points="233,-221 233,-253 "/>
<path fill="none" stroke="#2e3436" stroke-width="1.5" d="M233,-253C233,-259 227,-265 221,-265"/>
<polyline fill="none" stroke="#2e3436" stroke-width="1.5" points="221,-265 139,-265 "/>
<path fill="none" stroke="#2e3436" stroke-width="1.5" d="M139,-265C133,-265 127,-259 127,-253"/>
<polyline fill="none" stroke="#2e3436" stroke-width="1.5" points="127,-253 127,-221 "/>
<path fill="none" stroke="#2e3436" stroke-width="1.5" d="M127,-221C127,-215 133,-209 139,-209"/>
<text text-anchor="middle" x="180" y="-253.8" font-family="FreeSans" font-size="8.00" fill="#1c2021">Node[8]</text>
<polyline fill="none" stroke="#2e3436" stroke-width="1.5" points="127,-247 233,-247 "/>
<text text-anchor="start" x="135" y="-235.8" font-family="FreeSans" font-size="8.00" fill="#1c2021">text = &#39;bobs status1&#39;</text>
<text text-anchor="start" x="135" y="-225.8" font-family="FreeSans" font-size="8.00" fill="#1c2021">name = &#39;bob_s1&#39;</text>
<text text-anchor="start" x="135" y="-215.8" font-family="FreeSans" font-size="8.00" fill="#1c2021">date = 1</text>
</g>
<!-- N9&#45;&gt;N8 -->
<g id="edge16" class="edge"><title>N9&#45;&gt;N8</title>
<path fill="none" stroke="#4e9a06" stroke-width="2" d="M185.864,-332.837C178.436,-324.819 170.887,-314.771 167,-304 163.408,-294.045 163.905,-282.88 166.075,-272.562"/>
<polygon fill="#4e9a06" stroke="#4e9a06" points="167.916,-265.228 169.363,-273.324 167.488,-268.987 166.575,-272.624 166.09,-272.502 165.605,-272.38 166.518,-268.743 162.816,-271.68 167.916,-265.228 167.916,-265.228"/>
<text text-anchor="middle" x="183.5" y="-291.8" font-family="FreeSans" font-size="8.00" fill="#4e9a06">STATUS</text>
</g>
<!-- N4 -->
<g id="node8" class="node"><title>N4</title>
<polygon fill="#ffffff" stroke="#ffffff" stroke-width="1.5" points="285,-1 371,-1 383,-13 383,-45 371,-57 285,-57 273,-45 273,-13 285,-1"/>
<path fill="#ffffff" stroke="#ffffff" stroke-width="1.5" d="M371,-1C377,-1 383,-7 383,-13"/>
<path fill="#ffffff" stroke="#ffffff" stroke-width="1.5" d="M383,-45C383,-51 377,-57 371,-57"/>
<path fill="#ffffff" stroke="#ffffff" stroke-width="1.5" d="M285,-57C279,-57 273,-51 273,-45"/>
<path fill="#ffffff" stroke="#ffffff" stroke-width="1.5" d="M273,-13C273,-7 279,-1 285,-1"/>
<polyline fill="none" stroke="#2e3436" stroke-width="1.5" points="285,-1 371,-1 "/>
<path fill="none" stroke="#2e3436" stroke-width="1.5" d="M371,-1C377,-1 383,-7 383,-13"/>
<polyline fill="none" stroke="#2e3436" stroke-width="1.5" points="383,-13 383,-45 "/>
<path fill="none" stroke="#2e3436" stroke-width="1.5" d="M383,-45C383,-51 377,-57 371,-57"/>
<polyline fill="none" stroke="#2e3436" stroke-width="1.5" points="371,-57 285,-57 "/>
<path fill="none" stroke="#2e3436" stroke-width="1.5" d="M285,-57C279,-57 273,-51 273,-45"/>
<polyline fill="none" stroke="#2e3436" stroke-width="1.5" points="273,-45 273,-13 "/>
<path fill="none" stroke="#2e3436" stroke-width="1.5" d="M273,-13C273,-7 279,-1 285,-1"/>
<text text-anchor="middle" x="328" y="-45.8" font-family="FreeSans" font-size="8.00" fill="#1c2021">Node[4]</text>
<polyline fill="none" stroke="#2e3436" stroke-width="1.5" points="273,-39 383,-39 "/>
<text text-anchor="start" x="281" y="-27.8" font-family="FreeSans" font-size="8.00" fill="#1c2021">text = &#39;Alices status2&#39;</text>
<text text-anchor="start" x="281" y="-17.8" font-family="FreeSans" font-size="8.00" fill="#1c2021">name = &#39;alice_s2&#39;</text>
<text text-anchor="start" x="281" y="-7.8" font-family="FreeSans" font-size="8.00" fill="#1c2021">date = 5</text>
</g>
<!-- N5 -->
<g id="node9" class="node"><title>N5</title>
<polygon fill="#ffffff" stroke="#ffffff" stroke-width="1.5" points="285,-105 371,-105 383,-117 383,-149 371,-161 285,-161 273,-149 273,-117 285,-105"/>
<path fill="#ffffff" stroke="#ffffff" stroke-width="1.5" d="M371,-105C377,-105 383,-111 383,-117"/>
<path fill="#ffffff" stroke="#ffffff" stroke-width="1.5" d="M383,-149C383,-155 377,-161 371,-161"/>
<path fill="#ffffff" stroke="#ffffff" stroke-width="1.5" d="M285,-161C279,-161 273,-155 273,-149"/>
<path fill="#ffffff" stroke="#ffffff" stroke-width="1.5" d="M273,-117C273,-111 279,-105 285,-105"/>
<polyline fill="none" stroke="#2e3436" stroke-width="1.5" points="285,-105 371,-105 "/>
<path fill="none" stroke="#2e3436" stroke-width="1.5" d="M371,-105C377,-105 383,-111 383,-117"/>
<polyline fill="none" stroke="#2e3436" stroke-width="1.5" points="383,-117 383,-149 "/>
<path fill="none" stroke="#2e3436" stroke-width="1.5" d="M383,-149C383,-155 377,-161 371,-161"/>
<polyline fill="none" stroke="#2e3436" stroke-width="1.5" points="371,-161 285,-161 "/>
<path fill="none" stroke="#2e3436" stroke-width="1.5" d="M285,-161C279,-161 273,-155 273,-149"/>
<polyline fill="none" stroke="#2e3436" stroke-width="1.5" points="273,-149 273,-117 "/>
<path fill="none" stroke="#2e3436" stroke-width="1.5" d="M273,-117C273,-111 279,-105 285,-105"/>
<text text-anchor="middle" x="328" y="-149.8" font-family="FreeSans" font-size="8.00" fill="#1c2021">Node[5]</text>
<polyline fill="none" stroke="#2e3436" stroke-width="1.5" points="273,-143 383,-143 "/>
<text text-anchor="start" x="281" y="-131.8" font-family="FreeSans" font-size="8.00" fill="#1c2021">text = &#39;Alices status1&#39;</text>
<text text-anchor="start" x="281" y="-121.8" font-family="FreeSans" font-size="8.00" fill="#1c2021">name = &#39;alice_s1&#39;</text>
<text text-anchor="start" x="281" y="-111.8" font-family="FreeSans" font-size="8.00" fill="#1c2021">date = 2</text>
</g>
<!-- N5&#45;&gt;N4 -->
<g id="edge8" class="edge"><title>N5&#45;&gt;N4</title>
<path fill="none" stroke="#2e3436" stroke-width="2" d="M328,-104.856C328,-92.4855 328,-77.8152 328,-64.6881"/>
<polygon fill="#2e3436" stroke="#2e3436" points="328,-57.1664 331.375,-64.6663 328.5,-60.9164 328.5,-64.6664 328,-64.6664 327.5,-64.6664 327.5,-60.9164 324.625,-64.6664 328,-57.1664 328,-57.1664"/>
<text text-anchor="middle" x="339" y="-78.8" font-family="FreeSans" font-size="8.00" fill="#2e3436">NEXT</text>
</g>
<!-- N6&#45;&gt;N3 -->
<g id="edge12" class="edge"><title>N6&#45;&gt;N3</title>
<path fill="none" stroke="#a40000" stroke-width="2" d="M331.919,-255.265C338.472,-291.169 347.273,-371.482 307,-418 292.413,-434.849 269.476,-444.03 249.145,-449.03"/>
<polygon fill="#a40000" stroke="#a40000" points="241.792,-450.69 248.365,-445.746 245.34,-449.376 248.998,-448.551 249.108,-449.038 249.218,-449.526 245.56,-450.352 249.851,-452.331 241.792,-450.69 241.792,-450.69"/>
<text text-anchor="middle" x="378" y="-353.8" font-family="FreeSans" font-size="8.00" fill="#a40000">FRIEND</text>
<text text-anchor="start" x="337" y="-343.8" font-family="FreeSans" font-size="8.00" fill="#a40000">status = &#39;PENDING&#39;</text>
</g>
<!-- N6&#45;&gt;N5 -->
<g id="edge10" class="edge"><title>N6&#45;&gt;N5</title>
<path fill="none" stroke="#4e9a06" stroke-width="2" d="M328,-218.885C328,-205.057 328,-185.566 328,-168.647"/>
<polygon fill="#4e9a06" stroke="#4e9a06" points="328,-161.084 331.375,-168.584 328.5,-164.834 328.5,-168.584 328,-168.584 327.5,-168.584 327.5,-164.834 324.625,-168.584 328,-161.084 328,-161.084"/>
<text text-anchor="middle" x="344.5" y="-182.8" font-family="FreeSans" font-size="8.00" fill="#4e9a06">STATUS</text>
</g>
<!-- N7 -->
<g id="node14" class="node"><title>N7</title>
<polygon fill="#ffffff" stroke="#ffffff" stroke-width="1.5" points="139,-105 221,-105 233,-117 233,-149 221,-161 139,-161 127,-149 127,-117 139,-105"/>
<path fill="#ffffff" stroke="#ffffff" stroke-width="1.5" d="M221,-105C227,-105 233,-111 233,-117"/>
<path fill="#ffffff" stroke="#ffffff" stroke-width="1.5" d="M233,-149C233,-155 227,-161 221,-161"/>
<path fill="#ffffff" stroke="#ffffff" stroke-width="1.5" d="M139,-161C133,-161 127,-155 127,-149"/>
<path fill="#ffffff" stroke="#ffffff" stroke-width="1.5" d="M127,-117C127,-111 133,-105 139,-105"/>
<polyline fill="none" stroke="#2e3436" stroke-width="1.5" points="139,-105 221,-105 "/>
<path fill="none" stroke="#2e3436" stroke-width="1.5" d="M221,-105C227,-105 233,-111 233,-117"/>
<polyline fill="none" stroke="#2e3436" stroke-width="1.5" points="233,-117 233,-149 "/>
<path fill="none" stroke="#2e3436" stroke-width="1.5" d="M233,-149C233,-155 227,-161 221,-161"/>
<polyline fill="none" stroke="#2e3436" stroke-width="1.5" points="221,-161 139,-161 "/>
<path fill="none" stroke="#2e3436" stroke-width="1.5" d="M139,-161C133,-161 127,-155 127,-149"/>
<polyline fill="none" stroke="#2e3436" stroke-width="1.5" points="127,-149 127,-117 "/>
<path fill="none" stroke="#2e3436" stroke-width="1.5" d="M127,-117C127,-111 133,-105 139,-105"/>
<text text-anchor="middle" x="180" y="-149.8" font-family="FreeSans" font-size="8.00" fill="#1c2021">Node[7]</text>
<polyline fill="none" stroke="#2e3436" stroke-width="1.5" points="127,-143 233,-143 "/>
<text text-anchor="start" x="135" y="-131.8" font-family="FreeSans" font-size="8.00" fill="#1c2021">text = &#39;bobs status2&#39;</text>
<text text-anchor="start" x="135" y="-121.8" font-family="FreeSans" font-size="8.00" fill="#1c2021">name = &#39;bob_s2&#39;</text>
<text text-anchor="start" x="135" y="-111.8" font-family="FreeSans" font-size="8.00" fill="#1c2021">date = 4</text>
</g>
<!-- N8&#45;&gt;N7 -->
<g id="edge14" class="edge"><title>N8&#45;&gt;N7</title>
<path fill="none" stroke="#2e3436" stroke-width="2" d="M180,-208.856C180,-196.486 180,-181.815 180,-168.688"/>
<polygon fill="#2e3436" stroke="#2e3436" points="180,-161.166 183.375,-168.666 180.5,-164.916 180.5,-168.666 180,-168.666 179.5,-168.666 179.5,-164.916 176.625,-168.666 180,-161.166 180,-161.166"/>
<text text-anchor="middle" x="191" y="-182.8" font-family="FreeSans" font-size="8.00" fill="#2e3436">NEXT</text>
</g>
</g>
</svg>
