<?xml version="1.0" encoding="UTF-8" standalone="no"?>
<!DOCTYPE svg PUBLIC "-//W3C//DTD SVG 1.1//EN"
 "http://www.w3.org/Graphics/SVG/1.1/DTD/svg11.dtd">
<!-- Generated by graphviz version 2.26.3 (20100126.1600)
 -->
<!-- Title: g Pages: 1 -->
<svg width="259pt" height="284pt"
 viewBox="0.00 0.00 259.00 284.00" xmlns="http://www.w3.org/2000/svg" xmlns:xlink="http://www.w3.org/1999/xlink">
<g id="graph1" class="graph" transform="scale(1 1) rotate(0) translate(4 280)">
<title>g</title>
<polygon fill="white" stroke="white" points="-4,5 -4,-280 256,-280 256,5 -4,5"/>
<!-- N1 -->
<g id="node1" class="node"><title>N1</title>
<polygon fill="#ffffff" stroke="#ffffff" stroke-width="1.5" points="177,-6 237,-6 249,-18 249,-50 237,-62 177,-62 165,-50 165,-18 177,-6"/>
<path fill="#ffffff" stroke="#ffffff" stroke-width="1.5" d="M237,-6C243,-6 249,-12 249,-18"/>
<path fill="#ffffff" stroke="#ffffff" stroke-width="1.5" d="M249,-50C249,-56 243,-62 237,-62"/>
<path fill="#ffffff" stroke="#ffffff" stroke-width="1.5" d="M177,-62C171,-62 165,-56 165,-50"/>
<path fill="#ffffff" stroke="#ffffff" stroke-width="1.5" d="M165,-18C165,-12 171,-6 177,-6"/>
<polyline fill="none" stroke="#2e3436" stroke-width="1.5" points="177,-6 237,-6 "/>
<path fill="none" stroke="#2e3436" stroke-width="1.5" d="M237,-6C243,-6 249,-12 249,-18"/>
<polyline fill="none" stroke="#2e3436" stroke-width="1.5" points="249,-18 249,-50 "/>
<path fill="none" stroke="#2e3436" stroke-width="1.5" d="M249,-50C249,-56 243,-62 237,-62"/>
<polyline fill="none" stroke="#2e3436" stroke-width="1.5" points="237,-62 177,-62 "/>
<path fill="none" stroke="#2e3436" stroke-width="1.5" d="M177,-62C171,-62 165,-56 165,-50"/>
<polyline fill="none" stroke="#2e3436" stroke-width="1.5" points="165,-50 165,-18 "/>
<path fill="none" stroke="#2e3436" stroke-width="1.5" d="M165,-18C165,-12 171,-6 177,-6"/>
<text text-anchor="middle" x="207" y="-50.8" font-family="FreeSans" font-size="8.00" fill="#1c2021">Node[1]</text>
<polyline fill="none" stroke="#2e3436" stroke-width="1.5" points="165,-44 249,-44 "/>
<text text-anchor="start" x="173" y="-32.8" font-family="FreeSans" font-size="8.00" fill="#1c2021">age = 54</text>
<text text-anchor="start" x="173" y="-22.8" font-family="FreeSans" font-size="8.00" fill="#1c2021">name = &#39;Daniel&#39;</text>
<text text-anchor="start" x="173" y="-12.8" font-family="FreeSans" font-size="8.00" fill="#1c2021">eyes = &#39;brown&#39;</text>
</g>
<!-- N2 -->
<g id="node2" class="node"><title>N2</title>
<polygon fill="#ffffff" stroke="#ffffff" stroke-width="1.5" points="11.5,-1 124.5,-1 136.5,-13 136.5,-55 124.5,-67 11.5,-67 -0.5,-55 -0.5,-13 11.5,-1"/>
<path fill="#ffffff" stroke="#ffffff" stroke-width="1.5" d="M124.5,-1C130.5,-1 136.5,-7 136.5,-13"/>
<path fill="#ffffff" stroke="#ffffff" stroke-width="1.5" d="M136.5,-55C136.5,-61 130.5,-67 124.5,-67"/>
<path fill="#ffffff" stroke="#ffffff" stroke-width="1.5" d="M11.5,-67C5.5,-67 -0.5,-61 -0.5,-55"/>
<path fill="#ffffff" stroke="#ffffff" stroke-width="1.5" d="M-0.5,-13C-0.5,-7 5.5,-1 11.5,-1"/>
<polyline fill="none" stroke="#2e3436" stroke-width="1.5" points="11.5,-1 124.5,-1 "/>
<path fill="none" stroke="#2e3436" stroke-width="1.5" d="M124.5,-1C130.5,-1 136.5,-7 136.5,-13"/>
<polyline fill="none" stroke="#2e3436" stroke-width="1.5" points="136.5,-13 136.5,-55 "/>
<path fill="none" stroke="#2e3436" stroke-width="1.5" d="M136.5,-55C136.5,-61 130.5,-67 124.5,-67"/>
<polyline fill="none" stroke="#2e3436" stroke-width="1.5" points="124.5,-67 11.5,-67 "/>
<path fill="none" stroke="#2e3436" stroke-width="1.5" d="M11.5,-67C5.5,-67 -0.5,-61 -0.5,-55"/>
<polyline fill="none" stroke="#2e3436" stroke-width="1.5" points="-0.5,-55 -0.5,-13 "/>
<path fill="none" stroke="#2e3436" stroke-width="1.5" d="M-0.5,-13C-0.5,-7 5.5,-1 11.5,-1"/>
<text text-anchor="middle" x="68" y="-55.8" font-family="FreeSans" font-size="8.00" fill="#1c2021">Node[2]</text>
<polyline fill="none" stroke="#2e3436" stroke-width="1.5" points="-0.5,-49 136.5,-49 "/>
<text text-anchor="start" x="7.5" y="-37.8" font-family="FreeSans" font-size="8.00" fill="#1c2021">age = 41</text>
<text text-anchor="start" x="7.5" y="-27.8" font-family="FreeSans" font-size="8.00" fill="#1c2021">name = &#39;Eskil&#39;</text>
<text text-anchor="start" x="7.5" y="-17.8" font-family="FreeSans" font-size="8.00" fill="#1c2021">array = [&#39;one&#39;, &#39;two&#39;, &#39;three&#39;]</text>
<text text-anchor="start" x="7.5" y="-7.8" font-family="FreeSans" font-size="8.00" fill="#1c2021">eyes = &#39;blue&#39;</text>
</g>
<!-- N3 -->
<g id="node3" class="node"><title>N3</title>
<polygon fill="#ffffff" stroke="#ffffff" stroke-width="1.5" points="129,-219 185,-219 197,-231 197,-263 185,-275 129,-275 117,-263 117,-231 129,-219"/>
<path fill="#ffffff" stroke="#ffffff" stroke-width="1.5" d="M185,-219C191,-219 197,-225 197,-231"/>
<path fill="#ffffff" stroke="#ffffff" stroke-width="1.5" d="M197,-263C197,-269 191,-275 185,-275"/>
<path fill="#ffffff" stroke="#ffffff" stroke-width="1.5" d="M129,-275C123,-275 117,-269 117,-263"/>
<path fill="#ffffff" stroke="#ffffff" stroke-width="1.5" d="M117,-231C117,-225 123,-219 129,-219"/>
<polyline fill="none" stroke="#2e3436" stroke-width="1.5" points="129,-219 185,-219 "/>
<path fill="none" stroke="#2e3436" stroke-width="1.5" d="M185,-219C191,-219 197,-225 197,-231"/>
<polyline fill="none" stroke="#2e3436" stroke-width="1.5" points="197,-231 197,-263 "/>
<path fill="none" stroke="#2e3436" stroke-width="1.5" d="M197,-263C197,-269 191,-275 185,-275"/>
<polyline fill="none" stroke="#2e3436" stroke-width="1.5" points="185,-275 129,-275 "/>
<path fill="none" stroke="#2e3436" stroke-width="1.5" d="M129,-275C123,-275 117,-269 117,-263"/>
<polyline fill="none" stroke="#2e3436" stroke-width="1.5" points="117,-263 117,-231 "/>
<path fill="none" stroke="#2e3436" stroke-width="1.5" d="M117,-231C117,-225 123,-219 129,-219"/>
<text text-anchor="middle" x="157" y="-263.8" font-family="FreeSans" font-size="8.00" fill="#1c2021">Node[3]</text>
<polyline fill="none" stroke="#2e3436" stroke-width="1.5" points="117,-257 197,-257 "/>
<text text-anchor="start" x="125" y="-245.8" font-family="FreeSans" font-size="8.00" fill="#1c2021">age = 38</text>
<text text-anchor="start" x="125" y="-235.8" font-family="FreeSans" font-size="8.00" fill="#1c2021">name = &#39;Alice&#39;</text>
<text text-anchor="start" x="125" y="-225.8" font-family="FreeSans" font-size="8.00" fill="#1c2021">eyes = &#39;brown&#39;</text>
</g>
<!-- N4 -->
<g id="node5" class="node"><title>N4</title>
<polygon fill="#ffffff" stroke="#ffffff" stroke-width="1.5" points="72,-115 122,-115 134,-127 134,-159 122,-171 72,-171 60,-159 60,-127 72,-115"/>
<path fill="#ffffff" stroke="#ffffff" stroke-width="1.5" d="M122,-115C128,-115 134,-121 134,-127"/>
<path fill="#ffffff" stroke="#ffffff" stroke-width="1.5" d="M134,-159C134,-165 128,-171 122,-171"/>
<path fill="#ffffff" stroke="#ffffff" stroke-width="1.5" d="M72,-171C66,-171 60,-165 60,-159"/>
<path fill="#ffffff" stroke="#ffffff" stroke-width="1.5" d="M60,-127C60,-121 66,-115 72,-115"/>
<polyline fill="none" stroke="#2e3436" stroke-width="1.5" points="72,-115 122,-115 "/>
<path fill="none" stroke="#2e3436" stroke-width="1.5" d="M122,-115C128,-115 134,-121 134,-127"/>
<polyline fill="none" stroke="#2e3436" stroke-width="1.5" points="134,-127 134,-159 "/>
<path fill="none" stroke="#2e3436" stroke-width="1.5" d="M134,-159C134,-165 128,-171 122,-171"/>
<polyline fill="none" stroke="#2e3436" stroke-width="1.5" points="122,-171 72,-171 "/>
<path fill="none" stroke="#2e3436" stroke-width="1.5" d="M72,-171C66,-171 60,-165 60,-159"/>
<polyline fill="none" stroke="#2e3436" stroke-width="1.5" points="60,-159 60,-127 "/>
<path fill="none" stroke="#2e3436" stroke-width="1.5" d="M60,-127C60,-121 66,-115 72,-115"/>
<text text-anchor="middle" x="97" y="-159.8" font-family="FreeSans" font-size="8.00" fill="#1c2021">Node[4]</text>
<polyline fill="none" stroke="#2e3436" stroke-width="1.5" points="60,-153 134,-153 "/>
<text text-anchor="start" x="68" y="-141.8" font-family="FreeSans" font-size="8.00" fill="#1c2021">age = 25</text>
<text text-anchor="start" x="68" y="-131.8" font-family="FreeSans" font-size="8.00" fill="#1c2021">name = &#39;Bob&#39;</text>
<text text-anchor="start" x="68" y="-121.8" font-family="FreeSans" font-size="8.00" fill="#1c2021">eyes = &#39;blue&#39;</text>
</g>
<!-- N3&#45;&gt;N4 -->
<g id="edge2" class="edge"><title>N3&#45;&gt;N4</title>
<path fill="none" stroke="#2e3436" stroke-width="2" d="M140.763,-218.856C133.493,-206.254 124.846,-191.266 117.166,-177.954"/>
<polygon fill="#2e3436" stroke="#2e3436" points="113.25,-171.166 119.921,-175.976 115.557,-174.165 117.431,-177.413 116.998,-177.663 116.565,-177.913 114.691,-174.664 114.074,-179.349 113.25,-171.166 113.25,-171.166"/>
<text text-anchor="middle" x="143.5" y="-192.8" font-family="FreeSans" font-size="8.00" fill="#2e3436">KNOWS</text>
</g>
<!-- N5 -->
<g id="node7" class="node"><title>N5</title>
<polygon fill="#ffffff" stroke="#ffffff" stroke-width="1.5" points="175,-115 239,-115 251,-127 251,-159 239,-171 175,-171 163,-159 163,-127 175,-115"/>
<path fill="#ffffff" stroke="#ffffff" stroke-width="1.5" d="M239,-115C245,-115 251,-121 251,-127"/>
<path fill="#ffffff" stroke="#ffffff" stroke-width="1.5" d="M251,-159C251,-165 245,-171 239,-171"/>
<path fill="#ffffff" stroke="#ffffff" stroke-width="1.5" d="M175,-171C169,-171 163,-165 163,-159"/>
<path fill="#ffffff" stroke="#ffffff" stroke-width="1.5" d="M163,-127C163,-121 169,-115 175,-115"/>
<polyline fill="none" stroke="#2e3436" stroke-width="1.5" points="175,-115 239,-115 "/>
<path fill="none" stroke="#2e3436" stroke-width="1.5" d="M239,-115C245,-115 251,-121 251,-127"/>
<polyline fill="none" stroke="#2e3436" stroke-width="1.5" points="251,-127 251,-159 "/>
<path fill="none" stroke="#2e3436" stroke-width="1.5" d="M251,-159C251,-165 245,-171 239,-171"/>
<polyline fill="none" stroke="#2e3436" stroke-width="1.5" points="239,-171 175,-171 "/>
<path fill="none" stroke="#2e3436" stroke-width="1.5" d="M175,-171C169,-171 163,-165 163,-159"/>
<polyline fill="none" stroke="#2e3436" stroke-width="1.5" points="163,-159 163,-127 "/>
<path fill="none" stroke="#2e3436" stroke-width="1.5" d="M163,-127C163,-121 169,-115 175,-115"/>
<text text-anchor="middle" x="207" y="-159.8" font-family="FreeSans" font-size="8.00" fill="#1c2021">Node[5]</text>
<polyline fill="none" stroke="#2e3436" stroke-width="1.5" points="163,-153 251,-153 "/>
<text text-anchor="start" x="171" y="-141.8" font-family="FreeSans" font-size="8.00" fill="#1c2021">age = 53</text>
<text text-anchor="start" x="171" y="-131.8" font-family="FreeSans" font-size="8.00" fill="#1c2021">name = &#39;Charlie&#39;</text>
<text text-anchor="start" x="171" y="-121.8" font-family="FreeSans" font-size="8.00" fill="#1c2021">eyes = &#39;green&#39;</text>
</g>
<!-- N3&#45;&gt;N5 -->
<g id="edge4" class="edge"><title>N3&#45;&gt;N5</title>
<path fill="none" stroke="#2e3436" stroke-width="2" d="M170.531,-218.856C176.589,-206.254 183.795,-191.266 190.195,-177.954"/>
<polygon fill="#2e3436" stroke="#2e3436" points="193.458,-171.166 193.25,-179.388 192.284,-174.763 190.659,-178.142 190.209,-177.926 189.758,-177.709 191.383,-174.329 187.167,-176.463 193.458,-171.166 193.458,-171.166"/>
<text text-anchor="middle" x="198.5" y="-192.8" font-family="FreeSans" font-size="8.00" fill="#2e3436">KNOWS</text>
</g>
<!-- N4&#45;&gt;N1 -->
<g id="edge6" class="edge"><title>N4&#45;&gt;N1</title>
<path fill="none" stroke="#2e3436" stroke-width="2" d="M125.328,-114.93C139.841,-100.548 157.625,-82.9264 172.888,-67.8023"/>
<polygon fill="#2e3436" stroke="#2e3436" points="178.386,-62.3539 175.434,-70.0304 176.074,-65.3486 173.41,-67.9881 173.058,-67.633 172.707,-67.2778 175.37,-64.6383 170.683,-65.2356 178.386,-62.3539 178.386,-62.3539"/>
<text text-anchor="middle" x="167.5" y="-88.8" font-family="FreeSans" font-size="8.00" fill="#2e3436">KNOWS</text>
</g>
<!-- N4&#45;&gt;N2 -->
<g id="edge8" class="edge"><title>N4&#45;&gt;N2</title>
<path fill="none" stroke="#4e9a06" stroke-width="2" d="M75.5099,-114.922C72.0025,-108.966 68.899,-102.505 67,-96 65.0503,-89.3217 64.1487,-82.0641 63.8903,-74.9453"/>
<polygon fill="#4e9a06" stroke="#4e9a06" points="63.8431,-67.3091 67.2645,-74.788 64.3663,-71.0559 64.3895,-74.8058 63.8895,-74.8089 63.3895,-74.812 63.3663,-71.0621 60.5146,-74.8298 63.8431,-67.3091 63.8431,-67.3091"/>
<text text-anchor="middle" x="85.5" y="-88.8" font-family="FreeSans" font-size="8.00" fill="#4e9a06">MARRIED</text>
</g>
<!-- N5&#45;&gt;N1 -->
<g id="edge10" class="edge"><title>N5&#45;&gt;N1</title>
<path fill="none" stroke="#2e3436" stroke-width="2" d="M207,-114.93C207,-101.305 207,-84.7723 207,-70.2102"/>
<polygon fill="#2e3436" stroke="#2e3436" points="207,-62.3539 210.375,-69.8539 207.5,-66.1039 207.5,-69.8539 207,-69.8539 206.5,-69.8539 206.5,-66.1039 203.625,-69.854 207,-62.3539 207,-62.3539"/>
<text text-anchor="middle" x="222.5" y="-88.8" font-family="FreeSans" font-size="8.00" fill="#2e3436">KNOWS</text>
</g>
</g>
</svg>
