<?xml version="1.0" encoding="UTF-8" standalone="no"?>
<!DOCTYPE svg PUBLIC "-//W3C//DTD SVG 1.1//EN"
 "http://www.w3.org/Graphics/SVG/1.1/DTD/svg11.dtd">
<!-- Generated by graphviz version 2.26.3 (20100126.1600)
 -->
<!-- Title: g Pages: 1 -->
<svg width="201pt" height="244pt"
 viewBox="0.00 0.00 201.00 244.00" xmlns="http://www.w3.org/2000/svg" xmlns:xlink="http://www.w3.org/1999/xlink">
<g id="graph1" class="graph" transform="scale(1 1) rotate(0) translate(4 240)">
<title>g</title>
<polygon fill="white" stroke="white" points="-4,5 -4,-240 198,-240 198,5 -4,5"/>
<!-- N1 -->
<g id="node1" class="node"><title>N1</title>
<polygon fill="#ffffff" stroke="#ffffff" stroke-width="1.5" points="12,-105 64,-105 76,-117 76,-129 64,-141 12,-141 0,-129 0,-117 12,-105"/>
<path fill="#ffffff" stroke="#ffffff" stroke-width="1.5" d="M64,-105C70,-105 76,-111 76,-117"/>
<path fill="#ffffff" stroke="#ffffff" stroke-width="1.5" d="M76,-129C76,-135 70,-141 64,-141"/>
<path fill="#ffffff" stroke="#ffffff" stroke-width="1.5" d="M12,-141C6,-141 0,-135 0,-129"/>
<path fill="#ffffff" stroke="#ffffff" stroke-width="1.5" d="M0,-117C0,-111 6,-105 12,-105"/>
<polyline fill="none" stroke="#2e3436" stroke-width="1.5" points="12,-105 64,-105 "/>
<path fill="none" stroke="#2e3436" stroke-width="1.5" d="M64,-105C70,-105 76,-111 76,-117"/>
<polyline fill="none" stroke="#2e3436" stroke-width="1.5" points="76,-117 76,-129 "/>
<path fill="none" stroke="#2e3436" stroke-width="1.5" d="M76,-129C76,-135 70,-141 64,-141"/>
<polyline fill="none" stroke="#2e3436" stroke-width="1.5" points="64,-141 12,-141 "/>
<path fill="none" stroke="#2e3436" stroke-width="1.5" d="M12,-141C6,-141 0,-135 0,-129"/>
<polyline fill="none" stroke="#2e3436" stroke-width="1.5" points="0,-129 0,-117 "/>
<path fill="none" stroke="#2e3436" stroke-width="1.5" d="M0,-117C0,-111 6,-105 12,-105"/>
<text text-anchor="middle" x="38" y="-129.8" font-family="FreeSans" font-size="8.00" fill="#1c2021">Node[1]</text>
<polyline fill="none" stroke="#2e3436" stroke-width="1.5" points="0,-123 76,-123 "/>
<text text-anchor="start" x="8" y="-111.8" font-family="FreeSans" font-size="8.00" fill="#1c2021">name = &#39;Emil&#39;</text>
</g>
<!-- N3 -->
<g id="node3" class="node"><title>N3</title>
<polygon fill="#ffffff" stroke="#ffffff" stroke-width="1.5" points="54,-1 110,-1 122,-13 122,-35 110,-47 54,-47 42,-35 42,-13 54,-1"/>
<path fill="#ffffff" stroke="#ffffff" stroke-width="1.5" d="M110,-1C116,-1 122,-7 122,-13"/>
<path fill="#ffffff" stroke="#ffffff" stroke-width="1.5" d="M122,-35C122,-41 116,-47 110,-47"/>
<path fill="#ffffff" stroke="#ffffff" stroke-width="1.5" d="M54,-47C48,-47 42,-41 42,-35"/>
<path fill="#ffffff" stroke="#ffffff" stroke-width="1.5" d="M42,-13C42,-7 48,-1 54,-1"/>
<polyline fill="none" stroke="#2e3436" stroke-width="1.5" points="54,-1 110,-1 "/>
<path fill="none" stroke="#2e3436" stroke-width="1.5" d="M110,-1C116,-1 122,-7 122,-13"/>
<polyline fill="none" stroke="#2e3436" stroke-width="1.5" points="122,-13 122,-35 "/>
<path fill="none" stroke="#2e3436" stroke-width="1.5" d="M122,-35C122,-41 116,-47 110,-47"/>
<polyline fill="none" stroke="#2e3436" stroke-width="1.5" points="110,-47 54,-47 "/>
<path fill="none" stroke="#2e3436" stroke-width="1.5" d="M54,-47C48,-47 42,-41 42,-35"/>
<polyline fill="none" stroke="#2e3436" stroke-width="1.5" points="42,-35 42,-13 "/>
<path fill="none" stroke="#2e3436" stroke-width="1.5" d="M42,-13C42,-7 48,-1 54,-1"/>
<text text-anchor="middle" x="82" y="-35.8" font-family="FreeSans" font-size="8.00" fill="#1c2021">Node[3]</text>
<polyline fill="none" stroke="#2e3436" stroke-width="1.5" points="42,-29 122,-29 "/>
<text text-anchor="start" x="50" y="-17.8" font-family="FreeSans" font-size="8.00" fill="#1c2021">age = 34</text>
<text text-anchor="start" x="50" y="-7.8" font-family="FreeSans" font-size="8.00" fill="#1c2021">name = &#39;Peter&#39;</text>
</g>
<!-- N1&#45;&gt;N3 -->
<g id="edge2" class="edge"><title>N1&#45;&gt;N3</title>
<path fill="none" stroke="#2e3436" stroke-width="2" d="M43.9501,-104.754C47.8317,-93.4295 53.2348,-78.6709 59,-66 60.8086,-62.025 62.8435,-57.9128 64.9355,-53.8872"/>
<polygon fill="#2e3436" stroke="#2e3436" points="68.4804,-47.2334 67.9325,-55.4396 67.1584,-50.7781 65.3951,-54.0877 64.9538,-53.8526 64.5126,-53.6175 66.2759,-50.3079 61.9752,-52.2657 68.4804,-47.2334 68.4804,-47.2334"/>
<text text-anchor="middle" x="74.5" y="-68.8" font-family="FreeSans" font-size="8.00" fill="#2e3436">KNOWS</text>
</g>
<!-- N2 -->
<g id="node4" class="node"><title>N2</title>
<polygon fill="#ffffff" stroke="#ffffff" stroke-width="1.5" points="118,-199 180,-199 192,-211 192,-223 180,-235 118,-235 106,-223 106,-211 118,-199"/>
<path fill="#ffffff" stroke="#ffffff" stroke-width="1.5" d="M180,-199C186,-199 192,-205 192,-211"/>
<path fill="#ffffff" stroke="#ffffff" stroke-width="1.5" d="M192,-223C192,-229 186,-235 180,-235"/>
<path fill="#ffffff" stroke="#ffffff" stroke-width="1.5" d="M118,-235C112,-235 106,-229 106,-223"/>
<path fill="#ffffff" stroke="#ffffff" stroke-width="1.5" d="M106,-211C106,-205 112,-199 118,-199"/>
<polyline fill="none" stroke="#2e3436" stroke-width="1.5" points="118,-199 180,-199 "/>
<path fill="none" stroke="#2e3436" stroke-width="1.5" d="M180,-199C186,-199 192,-205 192,-211"/>
<polyline fill="none" stroke="#2e3436" stroke-width="1.5" points="192,-211 192,-223 "/>
<path fill="none" stroke="#2e3436" stroke-width="1.5" d="M192,-223C192,-229 186,-235 180,-235"/>
<polyline fill="none" stroke="#2e3436" stroke-width="1.5" points="180,-235 118,-235 "/>
<path fill="none" stroke="#2e3436" stroke-width="1.5" d="M118,-235C112,-235 106,-229 106,-223"/>
<polyline fill="none" stroke="#2e3436" stroke-width="1.5" points="106,-223 106,-211 "/>
<path fill="none" stroke="#2e3436" stroke-width="1.5" d="M106,-211C106,-205 112,-199 118,-199"/>
<text text-anchor="middle" x="149" y="-223.8" font-family="FreeSans" font-size="8.00" fill="#1c2021">Node[2]</text>
<polyline fill="none" stroke="#2e3436" stroke-width="1.5" points="106,-217 192,-217 "/>
<text text-anchor="start" x="114" y="-205.8" font-family="FreeSans" font-size="8.00" fill="#1c2021">name = &#39;Stefan&#39;</text>
</g>
<!-- N4 -->
<g id="node6" class="node"><title>N4</title>
<polygon fill="#ffffff" stroke="#ffffff" stroke-width="1.5" points="117,-95 181,-95 193,-107 193,-139 181,-151 117,-151 105,-139 105,-107 117,-95"/>
<path fill="#ffffff" stroke="#ffffff" stroke-width="1.5" d="M181,-95C187,-95 193,-101 193,-107"/>
<path fill="#ffffff" stroke="#ffffff" stroke-width="1.5" d="M193,-139C193,-145 187,-151 181,-151"/>
<path fill="#ffffff" stroke="#ffffff" stroke-width="1.5" d="M117,-151C111,-151 105,-145 105,-139"/>
<path fill="#ffffff" stroke="#ffffff" stroke-width="1.5" d="M105,-107C105,-101 111,-95 117,-95"/>
<polyline fill="none" stroke="#2e3436" stroke-width="1.5" points="117,-95 181,-95 "/>
<path fill="none" stroke="#2e3436" stroke-width="1.5" d="M181,-95C187,-95 193,-101 193,-107"/>
<polyline fill="none" stroke="#2e3436" stroke-width="1.5" points="193,-107 193,-139 "/>
<path fill="none" stroke="#2e3436" stroke-width="1.5" d="M193,-139C193,-145 187,-151 181,-151"/>
<polyline fill="none" stroke="#2e3436" stroke-width="1.5" points="181,-151 117,-151 "/>
<path fill="none" stroke="#2e3436" stroke-width="1.5" d="M117,-151C111,-151 105,-145 105,-139"/>
<polyline fill="none" stroke="#2e3436" stroke-width="1.5" points="105,-139 105,-107 "/>
<path fill="none" stroke="#2e3436" stroke-width="1.5" d="M105,-107C105,-101 111,-95 117,-95"/>
<text text-anchor="middle" x="149" y="-139.8" font-family="FreeSans" font-size="8.00" fill="#1c2021">Node[4]</text>
<polyline fill="none" stroke="#2e3436" stroke-width="1.5" points="105,-133 193,-133 "/>
<text text-anchor="start" x="113" y="-121.8" font-family="FreeSans" font-size="8.00" fill="#1c2021">awesome = true</text>
<text text-anchor="start" x="113" y="-111.8" font-family="FreeSans" font-size="8.00" fill="#1c2021">age = 36</text>
<text text-anchor="start" x="113" y="-101.8" font-family="FreeSans" font-size="8.00" fill="#1c2021">name = &#39;Andres&#39;</text>
</g>
<!-- N2&#45;&gt;N4 -->
<g id="edge4" class="edge"><title>N2&#45;&gt;N4</title>
<path fill="none" stroke="#2e3436" stroke-width="2" d="M149,-198.876C149,-187.548 149,-172.567 149,-158.91"/>
<polygon fill="#2e3436" stroke="#2e3436" points="149,-151.06 152.375,-158.56 149.5,-154.81 149.5,-158.56 149,-158.56 148.5,-158.56 148.5,-154.81 145.625,-158.56 149,-151.06 149,-151.06"/>
<text text-anchor="middle" x="164.5" y="-172.8" font-family="FreeSans" font-size="8.00" fill="#2e3436">KNOWS</text>
</g>
<!-- N4&#45;&gt;N3 -->
<g id="edge6" class="edge"><title>N4&#45;&gt;N3</title>
<path fill="none" stroke="#2e3436" stroke-width="2" d="M129.98,-94.8954C121.202,-81.926 110.783,-66.53 101.9,-53.4046"/>
<polygon fill="#2e3436" stroke="#2e3436" points="97.6768,-47.1642 104.676,-51.4839 100.193,-49.9896 102.295,-53.0953 101.88,-53.3755 101.466,-53.6558 99.3645,-50.5501 99.0853,-55.2671 97.6768,-47.1642 97.6768,-47.1642"/>
<text text-anchor="middle" x="130.5" y="-68.8" font-family="FreeSans" font-size="8.00" fill="#2e3436">KNOWS</text>
</g>
</g>
</svg>
