<?xml version="1.0" encoding="UTF-8" standalone="no"?>
<!DOCTYPE svg PUBLIC "-//W3C//DTD SVG 1.1//EN"
 "http://www.w3.org/Graphics/SVG/1.1/DTD/svg11.dtd">
<!-- Generated by graphviz version 2.26.3 (20100126.1600)
 -->
<!-- Title: g Pages: 1 -->
<svg width="322pt" height="46pt"
 viewBox="0.00 0.00 322.00 46.00" xmlns="http://www.w3.org/2000/svg" xmlns:xlink="http://www.w3.org/1999/xlink">
<g id="graph1" class="graph" transform="scale(1 1) rotate(0) translate(4 42)">
<title>g</title>
<polygon fill="white" stroke="white" points="-4,5 -4,-42 319,-42 319,5 -4,5"/>
<!-- N77 -->
<g id="node1" class="node"><title>N77</title>
<polygon fill="#ffffff" stroke="#ffffff" stroke-width="1.5" points="12,-1 84,-1 96,-13 96,-25 84,-37 12,-37 0,-25 0,-13 12,-1"/>
<path fill="#ffffff" stroke="#ffffff" stroke-width="1.5" d="M84,-1C90,-1 96,-7 96,-13"/>
<path fill="#ffffff" stroke="#ffffff" stroke-width="1.5" d="M96,-25C96,-31 90,-37 84,-37"/>
<path fill="#ffffff" stroke="#ffffff" stroke-width="1.5" d="M12,-37C6,-37 0,-31 0,-25"/>
<path fill="#ffffff" stroke="#ffffff" stroke-width="1.5" d="M0,-13C0,-7 6,-1 12,-1"/>
<polyline fill="none" stroke="#2e3436" stroke-width="1.5" points="12,-1 84,-1 "/>
<path fill="none" stroke="#2e3436" stroke-width="1.5" d="M84,-1C90,-1 96,-7 96,-13"/>
<polyline fill="none" stroke="#2e3436" stroke-width="1.5" points="96,-13 96,-25 "/>
<path fill="none" stroke="#2e3436" stroke-width="1.5" d="M96,-25C96,-31 90,-37 84,-37"/>
<polyline fill="none" stroke="#2e3436" stroke-width="1.5" points="84,-37 12,-37 "/>
<path fill="none" stroke="#2e3436" stroke-width="1.5" d="M12,-37C6,-37 0,-31 0,-25"/>
<polyline fill="none" stroke="#2e3436" stroke-width="1.5" points="0,-25 0,-13 "/>
<path fill="none" stroke="#2e3436" stroke-width="1.5" d="M0,-13C0,-7 6,-1 12,-1"/>
<text text-anchor="middle" x="48" y="-25.8" font-family="FreeSans" font-size="8.00" fill="#1c2021">Node[77]</text>
<polyline fill="none" stroke="#2e3436" stroke-width="1.5" points="0,-19 96,-19 "/>
<text text-anchor="start" x="8" y="-7.8" font-family="FreeSans" font-size="8.00" fill="#1c2021">name = &#39;bob ross&#39;</text>
</g>
<!-- N78 -->
<g id="node2" class="node"><title>N78</title>
<polygon fill="#ffffff" stroke="#ffffff" stroke-width="1.5" points="136.5,-1 219.5,-1 231.5,-13 231.5,-25 219.5,-37 136.5,-37 124.5,-25 124.5,-13 136.5,-1"/>
<path fill="#ffffff" stroke="#ffffff" stroke-width="1.5" d="M219.5,-1C225.5,-1 231.5,-7 231.5,-13"/>
<path fill="#ffffff" stroke="#ffffff" stroke-width="1.5" d="M231.5,-25C231.5,-31 225.5,-37 219.5,-37"/>
<path fill="#ffffff" stroke="#ffffff" stroke-width="1.5" d="M136.5,-37C130.5,-37 124.5,-31 124.5,-25"/>
<path fill="#ffffff" stroke="#ffffff" stroke-width="1.5" d="M124.5,-13C124.5,-7 130.5,-1 136.5,-1"/>
<polyline fill="none" stroke="#2e3436" stroke-width="1.5" points="136.5,-1 219.5,-1 "/>
<path fill="none" stroke="#2e3436" stroke-width="1.5" d="M219.5,-1C225.5,-1 231.5,-7 231.5,-13"/>
<polyline fill="none" stroke="#2e3436" stroke-width="1.5" points="231.5,-13 231.5,-25 "/>
<path fill="none" stroke="#2e3436" stroke-width="1.5" d="M231.5,-25C231.5,-31 225.5,-37 219.5,-37"/>
<polyline fill="none" stroke="#2e3436" stroke-width="1.5" points="219.5,-37 136.5,-37 "/>
<path fill="none" stroke="#2e3436" stroke-width="1.5" d="M136.5,-37C130.5,-37 124.5,-31 124.5,-25"/>
<polyline fill="none" stroke="#2e3436" stroke-width="1.5" points="124.5,-25 124.5,-13 "/>
<path fill="none" stroke="#2e3436" stroke-width="1.5" d="M124.5,-13C124.5,-7 130.5,-1 136.5,-1"/>
<text text-anchor="middle" x="178" y="-25.8" font-family="FreeSans" font-size="8.00" fill="#1c2021">Node[78]</text>
<polyline fill="none" stroke="#2e3436" stroke-width="1.5" points="124.5,-19 231.5,-19 "/>
<text text-anchor="start" x="132.5" y="-7.8" font-family="FreeSans" font-size="8.00" fill="#1c2021">name = &#39;cat stevens&#39;</text>
</g>
<!-- N79 -->
<g id="node3" class="node"><title>N79</title>
<polygon fill="#ffffff" stroke="#ffffff" stroke-width="1.5" points="271.5,-1 302.5,-1 314.5,-13 314.5,-25 302.5,-37 271.5,-37 259.5,-25 259.5,-13 271.5,-1"/>
<path fill="#ffffff" stroke="#ffffff" stroke-width="1.5" d="M302.5,-1C308.5,-1 314.5,-7 314.5,-13"/>
<path fill="#ffffff" stroke="#ffffff" stroke-width="1.5" d="M314.5,-25C314.5,-31 308.5,-37 302.5,-37"/>
<path fill="#ffffff" stroke="#ffffff" stroke-width="1.5" d="M271.5,-37C265.5,-37 259.5,-31 259.5,-25"/>
<path fill="#ffffff" stroke="#ffffff" stroke-width="1.5" d="M259.5,-13C259.5,-7 265.5,-1 271.5,-1"/>
<polyline fill="none" stroke="#2e3436" stroke-width="1.5" points="271.5,-1 302.5,-1 "/>
<path fill="none" stroke="#2e3436" stroke-width="1.5" d="M302.5,-1C308.5,-1 314.5,-7 314.5,-13"/>
<polyline fill="none" stroke="#2e3436" stroke-width="1.5" points="314.5,-13 314.5,-25 "/>
<path fill="none" stroke="#2e3436" stroke-width="1.5" d="M314.5,-25C314.5,-31 308.5,-37 302.5,-37"/>
<polyline fill="none" stroke="#2e3436" stroke-width="1.5" points="302.5,-37 271.5,-37 "/>
<path fill="none" stroke="#2e3436" stroke-width="1.5" d="M271.5,-37C265.5,-37 259.5,-31 259.5,-25"/>
<polyline fill="none" stroke="#2e3436" stroke-width="1.5" points="259.5,-25 259.5,-13 "/>
<path fill="none" stroke="#2e3436" stroke-width="1.5" d="M259.5,-13C259.5,-7 265.5,-1 271.5,-1"/>
<text text-anchor="middle" x="287" y="-25.8" font-family="FreeSans" font-size="8.00" fill="#1c2021">Node[79]</text>
<polyline fill="none" stroke="#2e3436" stroke-width="1.5" points="259.5,-19 314.5,-19 "/>
<text text-anchor="middle" x="287" y="-7.8" font-family="FreeSans" font-size="8.00" fill="#1c2021"> </text>
</g>
</g>
</svg>
